<?xml version="1.0" encoding="UTF-8"?>
<svg version="1.1" xmlns="http://www.w3.org/2000/svg" width="24" height="24">
<path d="M0 0 C3.55247432 0.87379409 4.94828114 2.4927342 6.9375 5.4765625 C7.97224055 10.25228809 7.97224055 10.25228809 6.9375 13.4765625 C4.56398597 16.79227408 1.86909293 19.64966931 -1.0625 22.4765625 C-5.57388899 20.45624482 -8.49604764 17.7017188 -11.0625 13.4765625 C-11.91302643 10.33615721 -11.65740478 8.8296622 -11.0625 5.4765625 C-8.05531939 0.96579158 -5.26030565 -0.3785826 0 0 Z M-5.0625 6.4765625 C-5.0625 8.4565625 -5.0625 10.4365625 -5.0625 12.4765625 C-2.64630177 12.72687227 -2.64630177 12.72687227 -0.0625 12.4765625 C0.5975 11.4865625 1.2575 10.4965625 1.9375 9.4765625 C0.62549596 8.12223575 -0.70881404 6.78922768 -2.0625 5.4765625 C-3.2861068 5.4020269 -3.2861068 5.4020269 -5.0625 6.4765625 Z " fill="#000000" transform="translate(14.0625,1.5234375)"/>
<path d="M0 0 C1.32 0 2.64 0 4 0 C4 1.32 4 2.64 4 4 C2.68 4 1.36 4 0 4 C0 2.68 0 1.36 0 0 Z " fill="#000000" transform="translate(10,9)"/>
</svg>
